<svg xmlns="http://www.w3.org/2000/svg" version="1.1" xmlns:xlink="http://www.w3.org/1999/xlink" xmlns:svgjs="http://svgjs.dev/svgjs" width="1500" height="1500" viewBox="0 0 1500 1500"><rect width="1500" height="1500" fill="#153084"></rect><g transform="matrix(0.6666666666666666,0,0,0.6666666666666666,249.39393939393938,674.1242495431767)"><svg viewBox="0 0 396 60" data-background-color="#153084" preserveAspectRatio="xMidYMid meet" height="227" width="1500" xmlns="http://www.w3.org/2000/svg" xmlns:xlink="http://www.w3.org/1999/xlink"><g id="tight-bounds" transform="matrix(1,0,0,1,0.2400000000000091,0.08289665689031267)"><svg viewBox="0 0 395.52 59.834206686219375" height="59.834206686219375" width="395.52"><g><svg viewBox="0 0 479.46235489024417 72.53299363057326" height="59.834206686219375" width="395.52"><g transform="matrix(1,0,0,1,83.9423548902442,10.02445859872612)"><svg viewBox="0 0 395.52 52.48407643312102" height="52.48407643312102" width="395.52"><g id="textblocktransform"><svg viewBox="0 0 395.52 52.48407643312102" height="52.48407643312102" width="395.52" id="textblock"><g><svg viewBox="0 0 395.52 52.48407643312102" height="52.48407643312102" width="395.52"><g transform="matrix(1,0,0,1,0,0)"><svg width="395.52" viewBox="1.8 -37.5 376.76 50" height="52.48407643312102" data-palette-color="#ffbf00"><path d="M19.65-2.25L19.65-2.25Q21.05-3.5 21.88-5.3 22.7-7.1 22.7-9.3L22.7-9.3Q22.65-12.75 21.28-14.65 19.9-16.55 17.85-17.6L17.85-17.6Q15.7-18.65 13.28-19.25 10.85-19.85 8.9-20.75L8.9-20.75Q7.2-21.5 6.1-22.73 5-23.95 5-26.2L5-26.2Q5-27.55 5.43-28.8 5.85-30.05 6.7-31.05L6.7-31.05Q7.55-32.05 8.88-32.65 10.2-33.25 12-33.25L12-33.25Q14.05-33.25 15.58-32.77 17.1-32.3 18.05-31.7L18.05-31.7 18.05-27.3 20.05-27.3 20.05-32.7Q19.1-33.45 18.03-33.98 16.95-34.5 15.95-34.75L15.95-34.75Q14.9-35 13.9-35.1 12.9-35.2 12.05-35.2L12.05-35.2Q9.55-35.2 7.8-34.38 6.05-33.55 4.95-32.2L4.95-32.2Q3.85-30.85 3.38-29.18 2.9-27.5 2.95-25.85L2.95-25.85Q3.05-23.4 4.05-21.95 5.05-20.5 6.6-19.6L6.6-19.6Q8.1-18.75 9.93-18.2 11.75-17.65 13.5-17.1L13.5-17.1Q15-16.55 16.32-15.98 17.65-15.4 18.65-14.4L18.65-14.4Q19.6-13.55 20.13-12.25 20.65-10.95 20.65-9.2L20.65-9.2Q20.65-7.45 19.9-6.03 19.15-4.6 18-3.6L18-3.6Q16.75-2.65 15.2-2.1 13.65-1.55 11.95-1.55L11.95-1.55Q9.15-1.55 7.15-2.45 5.15-3.35 3.8-4.6L3.8-4.6 3.8-9.1 1.8-9.1 1.8-3.75Q2.35-3.1 3.3-2.38 4.25-1.65 5.6-1.05L5.6-1.05Q6.85-0.4 8.53 0 10.2 0.4 12.15 0.4L12.15 0.4Q14.3 0.4 16.25-0.28 18.2-0.95 19.65-2.25ZM25.65 0L35.3 0 35.3-1.95 31.6-1.95 31.6-10.25Q31.6-11.75 32.22-13 32.85-14.25 33.95-15.2L33.95-15.2Q34.95-16.1 36.35-16.6 37.75-17.1 39.3-17.1L39.3-17.1Q41.4-17 42.47-15.83 43.55-14.65 43.65-13L43.65-13 43.65-1.95 39.75-1.95 39.75 0 49.4 0 49.4-1.95 45.7-1.95 45.7-13.55Q45.6-16.05 44-17.6 42.4-19.15 39.65-19.15L39.65-19.15Q36.8-19.1 34.65-17.7 32.5-16.3 31.45-13.9L31.45-13.9 31.6-16.15 31.6-37.5 25.85-37.5 25.85-35.55 29.55-35.55 29.55-1.95 25.65-1.95 25.65 0ZM52.9 0L62.55 0 62.55-1.95 58.85-1.95 58.85-10.25Q58.85-11.8 59.5-13.13 60.15-14.45 61.3-15.3L61.3-15.3Q62.3-16.15 63.62-16.63 64.95-17.1 66.45-17.1L66.45-17.1 66.55-19.15Q65.4-19.1 64.27-18.75 63.15-18.4 62.1-17.75L62.1-17.75Q61-17.1 60.12-16.13 59.25-15.15 58.7-13.9L58.7-13.9Q58.65-14.75 58.65-15 58.65-15.25 58.6-16.1L58.6-16.1 58.45-18.75 53.2-18.75 53.2-16.8 56.8-16.8 56.8-1.95 52.9-1.95 52.9 0ZM70.04 0L79.69 0 79.69-1.95 75.94-1.95 75.94-18.75 70.04-18.75 70.04-16.8 73.89-16.8 73.89-1.95 70.04-1.95 70.04 0ZM76.59-25.4L76.59-25.4Q76.59-26.1 76.09-26.58 75.59-27.05 74.94-27.05L74.94-27.05Q74.34-27.05 73.84-26.58 73.34-26.1 73.34-25.4L73.34-25.4Q73.34-24.7 73.84-24.23 74.34-23.75 74.94-23.75L74.94-23.75Q75.59-23.75 76.09-24.23 76.59-24.7 76.59-25.4ZM83.19 0L92.84 0 92.84-1.95 89.14-1.95 89.14-10.25Q89.14-11.75 89.77-13 90.39-14.25 91.49-15.2L91.49-15.2Q92.49-16.1 93.89-16.6 95.29-17.1 96.84-17.1L96.84-17.1Q98.94-17 100.02-15.83 101.09-14.65 101.19-13L101.19-13 101.19-1.95 97.29-1.95 97.29 0 106.94 0 106.94-1.95 103.24-1.95 103.24-10.45Q103.29-11.9 103.94-13.13 104.59-14.35 105.64-15.25L105.64-15.25Q106.69-16.1 108.07-16.6 109.44-17.1 110.94-17.1L110.94-17.1Q113.04-17 114.12-15.83 115.19-14.65 115.29-13L115.29-13 115.29-1.95 111.44-1.95 111.44 0 121.04 0 121.04-1.95 117.34-1.95 117.34-13.55Q117.24-16.05 115.67-17.6 114.09-19.15 111.29-19.15L111.29-19.15Q108.54-19.1 106.42-17.75 104.29-16.4 103.19-14.15L103.19-14.15Q102.94-16.4 101.34-17.78 99.74-19.15 97.19-19.15L97.19-19.15Q94.34-19.1 92.17-17.68 89.99-16.25 88.99-13.9L88.99-13.9Q88.94-14.75 88.89-15.43 88.84-16.1 88.79-16.95L88.79-16.95 88.74-18.75 83.49-18.75 83.49-16.8 87.09-16.8 87.09-1.95 83.19-1.95 83.19 0ZM124.94 10.55L124.94 12.5 134.59 12.5 134.59 10.55 130.34 10.55 130.34-2.25Q130.34-2.7 130.31-3.18 130.29-3.65 130.29-4.15L130.29-4.15Q130.64-3.25 131.31-2.48 131.99-1.7 133.04-1.05L133.04-1.05Q134.04-0.35 135.34 0.03 136.64 0.4 138.14 0.4L138.14 0.4Q140.14 0.4 141.94-0.38 143.74-1.15 145.09-2.45L145.09-2.45Q146.44-3.75 147.19-5.55 147.94-7.35 147.94-9.35L147.94-9.35Q147.94-11.35 147.19-13.13 146.44-14.9 145.09-16.25L145.09-16.25Q143.74-17.6 141.94-18.35 140.14-19.1 138.14-19.1L138.14-19.1Q135.14-19.1 133.04-17.65 130.94-16.2 130.09-14.25L130.09-14.25Q130.09-15.35 130.01-16.48 129.94-17.6 129.94-18.75L129.94-18.75 124.54-18.75 124.54-16.8 128.29-16.8 128.29 10.55 124.94 10.55ZM138.14-17.1L138.14-17.1Q139.69-17.1 141.09-16.53 142.49-15.95 143.54-15L143.54-15Q144.64-13.95 145.26-12.5 145.89-11.05 145.89-9.35L145.89-9.35Q145.89-7.7 145.26-6.25 144.64-4.8 143.54-3.75L143.54-3.75Q142.49-2.75 141.09-2.18 139.69-1.6 138.14-1.6L138.14-1.6Q136.49-1.6 135.09-2.18 133.69-2.75 132.64-3.75L132.64-3.75Q131.54-4.85 130.94-6.28 130.34-7.7 130.34-9.35L130.34-9.35Q130.34-10.95 130.91-12.38 131.49-13.8 132.54-14.85L132.54-14.85Q133.59-15.9 135.01-16.5 136.44-17.1 138.14-17.1ZM151.44 0L161.09 0 161.09-1.95 157.34-1.95 157.34-18.75 151.44-18.75 151.44-16.8 155.29-16.8 155.29-1.95 151.44-1.95 151.44 0ZM157.99-25.4L157.99-25.4Q157.99-26.1 157.49-26.58 156.99-27.05 156.34-27.05L156.34-27.05Q155.74-27.05 155.24-26.58 154.74-26.1 154.74-25.4L154.74-25.4Q154.74-24.7 155.24-24.23 155.74-23.75 156.34-23.75L156.34-23.75Q156.99-23.75 157.49-24.23 157.99-24.7 157.99-25.4ZM164.58 0L174.23 0 174.23-1.95 170.53-1.95 170.53-10.25Q170.53-11.75 171.16-13 171.78-14.25 172.88-15.2L172.88-15.2Q173.88-16.1 175.28-16.6 176.68-17.1 178.23-17.1L178.23-17.1Q180.33-17 181.41-15.83 182.48-14.65 182.58-13L182.58-13 182.58-1.95 178.68-1.95 178.68 0 188.33 0 188.33-1.95 184.63-1.95 184.63-13.55Q184.53-16.05 182.93-17.6 181.33-19.15 178.58-19.15L178.58-19.15Q175.78-19.15 173.58-17.7 171.38-16.25 170.38-13.9L170.38-13.9Q170.33-14.75 170.28-15.43 170.23-16.1 170.18-16.95L170.18-16.95 170.13-18.75 164.88-18.75 164.88-16.8 168.48-16.8 168.48-1.95 164.58-1.95 164.58 0ZM195.78 7.95L194.33 9.6Q195.73 10.95 197.66 11.73 199.58 12.5 201.98 12.5L201.98 12.5Q203.98 12.45 205.71 11.68 207.43 10.9 208.73 9.5L208.73 9.5Q210.03 8.15 210.78 6.18 211.53 4.2 211.53 1.7L211.53 1.7 211.53-16.8 215.23-16.8 215.23-18.75 209.88-18.75Q209.78-17.6 209.73-16.53 209.68-15.45 209.68-14.35L209.68-14.35Q208.78-16.35 206.63-17.75 204.48-19.15 201.68-19.15L201.68-19.15Q199.58-19.15 197.81-18.38 196.03-17.6 194.68-16.3L194.68-16.3Q193.33-14.95 192.58-13.15 191.83-11.35 191.83-9.4L191.83-9.4Q191.83-7.35 192.58-5.6 193.33-3.85 194.68-2.55L194.68-2.55Q196.03-1.2 197.81-0.43 199.58 0.35 201.68 0.35L201.68 0.35Q203.13 0.35 204.43-0.03 205.73-0.4 206.78-1.1L206.78-1.1Q207.73-1.7 208.46-2.5 209.18-3.3 209.53-4.25L209.53-4.25Q209.53-3.6 209.51-3 209.48-2.4 209.48-1.9L209.48-1.9 209.48 1.6Q209.48 3.55 208.88 5.18 208.28 6.8 207.28 7.95L207.28 7.95Q206.23 9.15 204.86 9.78 203.48 10.4 201.93 10.4L201.93 10.4Q200.13 10.4 198.48 9.73 196.83 9.05 195.78 7.95L195.78 7.95ZM201.68-17.15L201.68-17.15Q203.23-17.15 204.63-16.6 206.03-16.05 207.08-15.05L207.08-15.05Q208.18-13.95 208.83-12.5 209.48-11.05 209.48-9.4L209.48-9.4Q209.48-7.75 208.88-6.35 208.28-4.95 207.23-3.95L207.23-3.95Q206.18-2.9 204.76-2.27 203.33-1.65 201.68-1.65L201.68-1.65Q200.03-1.65 198.63-2.23 197.23-2.8 196.18-3.85L196.18-3.85Q195.13-4.9 194.51-6.33 193.88-7.75 193.88-9.4L193.88-9.4Q193.88-11 194.46-12.38 195.03-13.75 196.08-14.8L196.08-14.8Q197.08-15.9 198.53-16.53 199.98-17.15 201.68-17.15ZM251.58 0L257.13 0 257.13-1.95 253.43-1.95 253.43-18.75 251.78-18.75Q251.68-17.65 251.63-16.53 251.58-15.4 251.58-14.35L251.58-14.35Q250.73-16.3 248.63-17.73 246.53-19.15 243.58-19.15L243.58-19.15Q241.48-19.15 239.7-18.38 237.93-17.6 236.58-16.3L236.58-16.3Q235.23-14.95 234.48-13.15 233.73-11.35 233.73-9.4L233.73-9.4Q233.73-7.35 234.48-5.6 235.23-3.85 236.58-2.5L236.58-2.5Q237.93-1.15 239.7-0.4 241.48 0.35 243.58 0.35L243.58 0.35Q245.08 0.35 246.4-0.05 247.73-0.45 248.78-1.15L248.78-1.15Q249.78-1.8 250.5-2.63 251.23-3.45 251.58-4.35L251.58-4.35Q251.58-3.7 251.58-3.18 251.58-2.65 251.58-2.05L251.58-2.05 251.58 0ZM243.58-17.15L243.58-17.15Q245.18-17.15 246.58-16.57 247.98-16 249.08-14.95L249.08-14.95Q250.13-13.9 250.75-12.48 251.38-11.05 251.38-9.4L251.38-9.4Q251.38-7.75 250.75-6.33 250.13-4.9 249.03-3.85L249.03-3.85Q247.98-2.8 246.58-2.23 245.18-1.65 243.58-1.65L243.58-1.65Q241.98-1.65 240.63-2.2 239.28-2.75 238.23-3.75L238.23-3.75Q237.08-4.8 236.43-6.25 235.78-7.7 235.78-9.4L235.78-9.4Q235.78-11 236.35-12.4 236.93-13.8 237.98-14.85L237.98-14.85Q238.98-15.95 240.43-16.55 241.88-17.15 243.58-17.15ZM260.62 0L270.27 0 270.27-1.95 266.57-1.95 266.57-10.25Q266.57-11.8 267.22-13.13 267.87-14.45 269.02-15.3L269.02-15.3Q270.02-16.15 271.35-16.63 272.67-17.1 274.17-17.1L274.17-17.1 274.27-19.15Q273.12-19.1 272-18.75 270.87-18.4 269.82-17.75L269.82-17.75Q268.72-17.1 267.85-16.13 266.97-15.15 266.42-13.9L266.42-13.9Q266.37-14.75 266.37-15 266.37-15.25 266.32-16.1L266.32-16.1 266.17-18.75 260.92-18.75 260.92-16.8 264.52-16.8 264.52-1.95 260.62-1.95 260.62 0ZM294.67-2.5L294.67-2.5Q295.97-3.85 296.75-5.6 297.52-7.35 297.52-9.4L297.52-9.4Q297.52-11.4 296.75-13.2 295.97-15 294.67-16.35L294.67-16.35Q293.32-17.65 291.5-18.43 289.67-19.2 287.62-19.2L287.62-19.2Q285.57-19.2 283.77-18.43 281.97-17.65 280.67-16.35L280.67-16.35Q279.32-15 278.57-13.2 277.82-11.4 277.82-9.4L277.82-9.4Q277.82-7.35 278.57-5.58 279.32-3.8 280.67-2.5L280.67-2.5Q281.97-1.15 283.75-0.4 285.52 0.35 287.62 0.35L287.62 0.35Q289.67 0.35 291.5-0.4 293.32-1.15 294.67-2.5ZM282.12-3.95L282.12-3.95Q281.07-4.95 280.47-6.35 279.87-7.75 279.87-9.4L279.87-9.4Q279.87-11 280.47-12.4 281.07-13.8 282.12-14.9L282.12-14.9Q283.17-15.95 284.57-16.55 285.97-17.15 287.57-17.15L287.57-17.15Q289.17-17.15 290.6-16.55 292.02-15.95 293.07-14.9L293.07-14.9Q294.17-13.8 294.77-12.4 295.37-11 295.37-9.4L295.37-9.4Q295.37-7.75 294.77-6.35 294.17-4.95 293.07-3.95L293.07-3.95Q292.02-2.85 290.6-2.25 289.17-1.65 287.57-1.65L287.57-1.65Q285.97-1.65 284.57-2.25 283.17-2.85 282.12-3.95ZM318.97-4.85L318.97-4.85 318.97-2.6 319.07 0 324.42 0 324.42-1.8 320.87-1.8 320.87-18.75 315.12-18.75 315.12-16.8 318.82-16.8 318.82-8.5Q318.82-7 318.19-5.73 317.57-4.45 316.52-3.6L316.52-3.6Q315.42-2.65 314.04-2.15 312.67-1.65 311.12-1.65L311.12-1.65Q309.02-1.75 307.94-2.93 306.87-4.1 306.77-5.75L306.77-5.75 306.77-18.75 301.02-18.75 301.02-16.8 304.72-16.8 304.72-5.2Q304.82-2.7 306.42-1.15 308.02 0.4 310.77 0.4L310.77 0.4Q313.52 0.4 315.74-1.03 317.97-2.45 318.97-4.85ZM327.92 0L337.56 0 337.56-1.95 333.87-1.95 333.87-10.25Q333.87-11.75 334.49-13 335.12-14.25 336.22-15.2L336.22-15.2Q337.22-16.1 338.62-16.6 340.02-17.1 341.56-17.1L341.56-17.1Q343.67-17 344.74-15.83 345.81-14.65 345.92-13L345.92-13 345.92-1.95 342.02-1.95 342.02 0 351.67 0 351.67-1.95 347.97-1.95 347.97-13.55Q347.87-16.05 346.27-17.6 344.67-19.15 341.92-19.15L341.92-19.15Q339.12-19.15 336.92-17.7 334.72-16.25 333.72-13.9L333.72-13.9Q333.67-14.75 333.62-15.43 333.56-16.1 333.52-16.95L333.52-16.95 333.47-18.75 328.22-18.75 328.22-16.8 331.81-16.8 331.81-1.95 327.92-1.95 327.92 0ZM373.01 0L378.56 0 378.56-1.95 374.86-1.95 374.86-37.5 369.26-37.5 369.26-35.55 372.81-35.55 372.81-18.95Q372.81-17.6 372.81-16.75 372.81-15.9 372.86-14.55L372.86-14.55Q372.46-15.4 371.81-16.2 371.16-17 370.11-17.7L370.11-17.7Q369.06-18.35 367.74-18.75 366.41-19.15 365.01-19.15L365.01-19.15Q362.91-19.15 361.14-18.38 359.36-17.6 358.01-16.3L358.01-16.3Q356.66-15 355.91-13.2 355.16-11.4 355.16-9.4L355.16-9.4Q355.16-7.35 355.91-5.6 356.66-3.85 358.01-2.5L358.01-2.5Q359.36-1.15 361.14-0.4 362.91 0.35 365.01 0.35L365.01 0.35Q366.51 0.35 367.84-0.05 369.16-0.45 370.21-1.15L370.21-1.15Q371.21-1.8 371.94-2.63 372.66-3.45 373.01-4.35L373.01-4.35Q373.01-3.7 373.01-3.18 373.01-2.65 373.01-2.05L373.01-2.05 373.01 0ZM365.01-17.15L365.01-17.15Q366.56-17.15 367.96-16.6 369.36-16.05 370.41-15.05L370.41-15.05Q371.51-14 372.16-12.53 372.81-11.05 372.81-9.4L372.81-9.4Q372.81-7.75 372.19-6.3 371.56-4.85 370.46-3.85L370.46-3.85Q369.36-2.8 367.99-2.23 366.61-1.65 365.01-1.65L365.01-1.65Q363.36-1.65 361.99-2.23 360.61-2.8 359.56-3.85L359.56-3.85Q358.46-4.85 357.84-6.3 357.21-7.75 357.21-9.4L357.21-9.4Q357.21-11 357.81-12.43 358.41-13.85 359.46-14.9L359.46-14.9Q360.51-15.95 361.91-16.55 363.31-17.15 365.01-17.15Z" opacity="1" transform="matrix(1,0,0,1,0,0)" fill="#ffbf00" class="wordmark-text-0" data-fill-palette-color="primary" id="text-0"></path></svg></g></svg></g></svg></g></svg></g><g><svg viewBox="0 0 71.55212406221872 72.53299363057326" height="72.53299363057326" width="71.55212406221872"><g><svg xmlns="http://www.w3.org/2000/svg" xmlns:xlink="http://www.w3.org/1999/xlink" version="1.1" x="0" y="0" viewBox="11.493999999999996 9.118 69.665 70.62" enable-background="new 0 0 90 90" xml:space="preserve" height="72.53299363057326" width="71.55212406221872" class="icon-icon-0" data-fill-palette-color="accent" id="icon-0"><g fill="#ffbf00" data-fill-palette-color="accent"><path d="M81.159 21.291c0-0.829-0.672-1.5-1.5-1.5h-8.018c0.745-1.095 1.182-2.416 1.182-3.837 0-3.77-3.066-6.836-6.836-6.836H19.176c-0.829 0-1.5 0.671-1.5 1.5s0.671 1.5 1.5 1.5h46.812c2.115 0 3.836 1.721 3.836 3.836 0 2.116-1.721 3.837-3.836 3.837H41.419c-16.5 0-29.925 13.424-29.925 29.924 0 16.497 13.418 29.918 29.913 29.925 0.559 0.06 1.124 0.098 1.683 0.098 0 0 0 0 0 0 7.958 0 14.66-5.97 15.589-13.885 0.046-0.396-0.066-0.793-0.313-1.104-0.247-0.313-0.607-0.514-1.003-0.561-1.877-0.219-3.772-0.101-5.579 0.346-0.052-1.87-0.438-3.728-1.145-5.468-0.311-0.768-1.186-1.141-1.953-0.826-3.89 1.576-6.933 4.573-8.568 8.438-1.041 2.461-1.426 5.085-1.166 7.671-2.48-1.595-4.411-3.911-5.547-6.6l3.021-1.132c0.775-0.29 1.169-1.154 0.878-1.931-0.291-0.775-1.155-1.171-1.931-0.878l-2.843 1.065c-0.173-0.89-0.273-1.799-0.273-2.724 0-1.058 0.121-2.087 0.337-3.081l3.623 1.408c0.179 0.069 0.362 0.102 0.543 0.102 0.601 0 1.168-0.363 1.398-0.957 0.3-0.771-0.083-1.641-0.854-1.941l-3.763-1.462c1.019-2.258 2.598-4.202 4.562-5.669l1.828 2.407c0.295 0.389 0.743 0.593 1.195 0.593 0.316 0 0.635-0.1 0.906-0.306 0.66-0.501 0.789-1.442 0.287-2.102l-1.625-2.139c1.844-0.853 3.89-1.342 6.051-1.342C64.758 47.662 81.159 35.092 81.159 21.291zM42.882 67.847c1.113-2.63 3.031-4.764 5.485-6.134 0.407 1.539 0.523 3.15 0.337 4.735-0.063 0.526 0.158 1.048 0.58 1.369s0.981 0.396 1.475 0.196c1.488-0.605 3.054-0.919 4.655-0.933-1.429 5.788-6.781 9.906-12.909 9.643l-0.033-0.094C41.555 73.746 41.69 70.664 42.882 67.847zM29.259 62.15c0 5.56 2.693 10.739 7.017 13.996-12.394-2.407-21.781-13.344-21.781-26.432 0-14.846 12.079-26.924 26.925-26.924h36.659c-1.14 10.621-14.163 21.872-31.33 21.872-3.244 0-6.274 0.904-8.881 2.449-0.121 0.049-0.238 0.108-0.346 0.19-0.023 0.018-0.041 0.039-0.063 0.058C32.542 50.459 29.259 55.922 29.259 62.15z" fill="#ffbf00" data-fill-palette-color="accent"></path><path d="M48.525 33.172c2.633 0 4.774-2.142 4.774-4.775s-2.142-4.775-4.774-4.775c-2.633 0-4.775 2.142-4.775 4.775S45.892 33.172 48.525 33.172zM48.525 26.621c0.979 0 1.774 0.796 1.774 1.775s-0.796 1.775-1.774 1.775-1.775-0.796-1.775-1.775S47.547 26.621 48.525 26.621z" fill="#ffbf00" data-fill-palette-color="accent"></path></g></svg></g></svg></g></svg></g><defs></defs></svg><rect width="395.52" height="59.834206686219375" fill="none" stroke="none" visibility="hidden"></rect></g></svg></g></svg>